<?xml version="1.0" standalone="no"?>
<!DOCTYPE svg PUBLIC "-//W3C//DTD SVG 20010904//EN"
 "http://www.w3.org/TR/2001/REC-SVG-20010904/DTD/svg10.dtd">
<svg version="1.0" xmlns="http://www.w3.org/2000/svg"
 width="758.000000pt" height="758.000000pt" viewBox="0 0 758.000000 758.000000"
 preserveAspectRatio="xMidYMid meet">
<metadata>
Created by potrace 1.11, written by Peter Selinger 2001-2013
</metadata>
<g transform="translate(0.000000,758.000000) scale(0.100000,-0.100000)"
fill="#000000" stroke="none">
<path d="M0 3790 l0 -3650 1700 0 c1556 0 1700 2 1700 16 0 13 -3 14 -15 4
-12 -10 -15 -7 -21 15 -4 18 -2 30 6 35 16 10 22 40 8 40 -6 0 -8 6 -5 13 3 8
-1 14 -9 14 -8 0 -14 -5 -14 -11 0 -6 -4 -5 -9 3 -11 17 7 73 20 65 6 -3 1 11
-10 32 -19 35 -19 38 -3 50 9 8 12 14 5 14 -13 0 -5 40 8 40 17 0 9 18 -11 23
-14 4 -18 10 -13 23 4 12 3 15 -5 10 -7 -4 -12 -2 -12 3 0 6 6 11 13 11 7 0
23 7 35 16 21 14 22 18 8 33 -16 17 -16 18 -16 57 0 14 -4 23 -10 19 -6 -4 -7
-12 -4 -18 4 -7 3 -8 -1 -4 -14 12 -15 37 -2 37 8 0 7 3 -2 9 -9 6 -10 11 -2
15 6 4 16 4 22 0 7 -4 7 1 -1 16 -7 14 -17 20 -28 16 -11 -4 -10 0 5 13 18 15
20 20 8 25 -8 3 -15 10 -15 16 0 6 4 8 10 5 6 -4 8 9 5 34 -3 26 -1 41 5 41 6
0 9 3 7 8 -3 4 -1 16 3 27 5 14 1 27 -13 43 l-21 22 22 22 c13 14 22 17 22 10
0 -7 4 -11 10 -7 5 3 -4 18 -20 34 -31 29 -39 51 -19 51 7 0 9 10 7 25 -3 13
-1 22 3 19 5 -3 9 0 9 5 0 6 -5 11 -10 11 -7 0 -7 6 0 20 7 14 7 20 0 20 -18
0 -11 45 10 58 23 14 16 42 -11 42 -23 0 -24 9 -3 38 9 13 13 30 10 39 -4 10
2 26 15 40 13 12 17 23 11 23 -7 0 -12 -4 -12 -9 0 -5 -7 -11 -14 -14 -10 -4
-13 -1 -9 9 3 9 0 13 -8 11 -8 -2 -11 -2 -7 0 5 3 8 13 8 24 0 10 3 19 8 19 4
0 7 10 8 23 0 12 2 29 5 37 3 10 -2 14 -15 12 -12 -2 -16 1 -10 9 5 9 2 10
-11 5 -14 -5 -16 -4 -7 7 7 8 8 18 4 22 -4 5 -2 5 4 2 21 -12 23 21 3 59 -20
40 -26 62 -8 32 5 -10 15 -18 20 -18 6 0 7 4 4 10 -3 5 0 10 7 10 10 0 13 17
12 65 -2 91 -2 95 -16 92 -7 -1 -11 5 -9 13 2 8 4 25 4 38 -1 20 1 21 11 7 9
-13 11 -10 10 16 0 17 -7 35 -15 40 -12 7 -12 9 0 9 10 0 11 3 2 13 -8 10 -7
17 2 26 9 10 8 14 -6 22 -14 8 -16 14 -7 24 29 36 16 145 -17 145 -14 0 -14 2
1 19 13 15 14 20 4 24 -8 4 -7 6 5 6 17 1 25 31 8 31 -5 0 -8 12 -6 27 2 16 5
28 6 28 1 0 3 22 4 48 2 40 -1 47 -14 42 -12 -4 -12 -2 2 9 18 14 18 14 0 19
-16 4 -16 5 1 6 20 1 20 1 0 16 -12 9 -14 14 -6 15 7 0 10 5 7 10 -4 6 -1 18
6 26 10 13 10 17 0 24 -11 6 -11 8 0 12 12 4 12 8 1 20 -9 11 -10 18 -2 23 6
3 8 11 4 16 -3 5 -10 6 -16 3 -7 -5 -8 -2 -3 6 13 20 16 102 5 115 -16 20 0
75 26 87 24 11 39 49 23 58 -5 4 -7 14 -3 23 3 9 9 15 14 12 4 -2 5 7 2 21 -3
17 -10 23 -21 20 -9 -2 -63 -12 -121 -21 -58 -9 -117 -20 -132 -25 -22 -6 -30
-5 -37 7 -9 18 -61 27 -61 12 0 -6 5 -7 10 -4 6 3 10 1 10 -6 0 -8 4 -8 15 1
12 10 15 10 15 -1 0 -10 -16 -14 -60 -14 -32 1 -62 4 -66 7 -3 4 -12 4 -20 1
-8 -3 -14 1 -14 10 0 8 -8 18 -17 22 -15 5 -16 4 -5 -6 19 -20 15 -26 -18 -31
-24 -4 -27 -2 -19 9 14 16 5 17 -21 3 -15 -8 -20 -6 -25 8 -4 15 -13 18 -43
15 -55 -6 -83 -4 -121 8 -18 6 -48 9 -67 6 -19 -3 -34 -2 -34 2 0 12 -127 44
-140 36 -6 -4 -22 1 -36 10 -31 20 -74 13 -75 -13 0 -9 -3 -12 -5 -6 -3 6 -16
9 -31 6 -18 -3 -24 -1 -19 7 4 6 2 11 -3 11 -6 0 -11 -8 -11 -17 0 -11 -3 -14
-8 -8 -4 6 -17 10 -30 9 -12 -1 -25 3 -28 7 -3 5 -10 9 -15 9 -6 0 -7 -5 -3
-11 5 -9 -3 -10 -28 -5 -28 5 -37 3 -42 -10 -6 -15 -11 -12 -34 13 -18 20 -34
29 -48 27 -16 -3 -24 3 -28 19 -6 20 -7 21 -17 4 -16 -27 -43 -3 -28 24 7 15
6 23 -5 34 -13 13 -15 13 -18 -1 -2 -10 -15 -18 -30 -20 -21 -2 -31 5 -54 42
-17 26 -34 42 -41 39 -7 -3 -20 -8 -28 -11 -10 -4 -15 0 -15 12 -1 11 -7 36
-15 58 -13 37 -12 39 11 60 l25 21 -48 48 c-41 40 -49 44 -50 27 -1 -13 2 -18
10 -13 9 5 9 3 1 -8 -15 -20 -12 -68 6 -79 16 -10 10 -20 -13 -24 -8 -1 -22
-8 -32 -16 -13 -11 -16 -11 -13 0 4 16 -70 58 -92 53 -21 -6 -104 106 -115
155 -2 9 -14 60 -26 112 -12 52 -24 115 -27 140 -9 73 -3 611 7 624 4 6 11 56
15 111 4 55 16 170 27 255 11 85 22 198 24 250 3 52 10 124 15 160 15 100 21
172 26 337 5 145 33 348 65 468 18 66 41 67 51 2 6 -46 18 -76 18 -48 0 7 10
21 23 31 19 16 22 28 23 98 2 105 31 170 111 248 42 40 96 64 147 64 14 0 50
12 79 26 128 63 140 65 419 64 237 0 380 10 418 30 28 15 114 20 335 20 200 0
317 8 400 29 33 8 222 -2 269 -14 20 -6 27 -5 22 3 -4 8 3 8 26 0 39 -12 49
-14 158 -29 47 -6 96 -16 110 -21 14 -6 59 -11 100 -13 41 -2 111 -8 155 -14
44 -6 157 -18 250 -26 200 -18 221 -22 140 -25 -33 -2 -48 -5 -32 -7 15 -2 27
-8 27 -13 0 -5 8 -8 18 -8 9 0 65 -11 124 -25 78 -19 125 -25 177 -23 44 3 71
0 71 -6 0 -6 6 -8 14 -5 8 3 16 2 18 -3 2 -5 16 -12 32 -16 21 -5 27 -4 22 5
-5 7 2 11 18 11 14 0 26 -4 26 -10 0 -5 3 -9 8 -8 11 2 46 -14 54 -26 8 -11
41 12 33 24 -3 4 3 14 13 21 15 13 16 12 3 -3 -12 -16 -11 -18 8 -18 11 0 20
-5 18 -12 -1 -7 3 -13 8 -13 6 -1 23 -7 39 -14 16 -6 35 -10 42 -7 7 3 35 -4
64 -15 28 -10 62 -17 76 -15 14 3 22 1 19 -5 -4 -5 -10 -7 -14 -5 -4 3 -13 1
-21 -5 -13 -7 -12 -9 3 -9 9 0 17 -7 17 -16 0 -8 -4 -12 -10 -9 -6 3 -10 1
-10 -4 0 -6 4 -11 8 -11 12 0 118 -80 106 -80 -5 0 -2 -6 7 -13 19 -15 87
-114 116 -170 13 -24 22 -34 23 -24 0 24 68 53 84 37 8 -8 10 -80 8 -238 -2
-125 -6 -230 -8 -234 -3 -5 1 -8 8 -8 9 0 10 -2 1 -8 -8 -5 -11 -113 -11 -402
0 -428 -10 -545 -61 -707 -5 -18 -7 -33 -4 -33 3 0 1 -6 -4 -12 -17 -22 -24
-80 -12 -95 9 -10 9 -12 -3 -8 -12 5 -17 -5 -22 -42 -3 -26 -11 -70 -16 -98
-19 -97 -50 -370 -44 -387 3 -10 2 -18 -3 -18 -4 0 -9 -19 -10 -41 -2 -23 -7
-47 -13 -54 -6 -7 -7 -21 -3 -30 5 -15 2 -17 -16 -12 -17 4 -30 -1 -48 -19
-13 -13 -28 -24 -32 -24 -5 0 -11 -7 -14 -15 -5 -11 0 -13 22 -9 16 4 32 1 35
-5 4 -6 12 -9 17 -6 15 10 10 -2 -8 -16 -10 -8 -14 -9 -10 -2 4 6 3 14 -2 17
-5 3 -16 -10 -25 -29 -17 -35 -36 -47 -36 -22 0 8 -4 7 -10 -3 -15 -23 -12
-33 8 -26 13 5 12 2 -4 -11 -11 -10 -36 -40 -55 -68 -19 -27 -45 -61 -57 -75
-13 -14 -28 -37 -34 -52 -12 -34 -35 -43 -56 -22 -15 15 -16 15 -23 -2 -4 -11
-8 -16 -8 -12 -1 4 -18 0 -38 -9 -54 -23 -524 -27 -597 -5 -39 11 -59 12 -104
3 -47 -9 -56 -9 -67 5 -8 11 -19 14 -33 10 -12 -4 -20 -11 -17 -16 3 -4 -29
-7 -70 -7 -49 0 -72 4 -68 11 5 7 2 7 -8 0 -8 -6 -48 -12 -89 -13 -41 -2 -78
-4 -81 -7 -4 -2 -11 1 -15 7 -4 7 -3 9 4 5 12 -7 10 20 -3 31 -4 4 -5 3 -1 -4
10 -19 -29 -34 -80 -32 -38 2 -45 6 -41 21 3 10 1 18 -4 18 -8 0 -13 -15 -10
-32 0 -5 -26 -8 -58 -8 -78 0 -89 -5 -97 -46 -3 -19 -10 -31 -15 -28 -5 3 -9
-2 -9 -11 0 -9 5 -13 10 -10 6 3 10 -1 10 -10 0 -10 5 -13 11 -9 8 5 10 -1 7
-20 -3 -14 -1 -29 3 -32 5 -3 9 6 9 19 0 47 21 87 48 93 15 3 33 7 39 9 26 8
43 -36 36 -93 -4 -41 -3 -56 8 -63 8 -5 9 -9 3 -9 -11 0 -13 -372 -2 -620 2
-69 7 -321 9 -560 4 -450 2 -480 -36 -480 -8 0 -19 -9 -25 -20 -6 -11 -7 -20
-1 -20 5 0 12 -7 15 -16 4 -10 2 -13 -7 -8 -9 6 -9 4 -1 -7 14 -19 11 -45 -4
-41 -7 1 -12 -5 -12 -14 0 -8 5 -12 10 -9 14 9 12 -19 -2 -33 -10 -10 -10 -17
0 -33 8 -12 9 -18 3 -14 -13 8 -14 -5 -1 -25 6 -9 5 -17 -3 -22 -9 -6 -9 -8 0
-8 9 0 10 -7 3 -25 -11 -30 -3 -389 10 -440 1 -5 2 -14 0 -20 -3 -20 1 -161 7
-183 l5 -22 1749 0 1749 0 0 3650 0 3650 -3790 0 -3790 0 0 -3650z m5065 2580
c22 -5 81 -17 130 -28 50 -10 99 -24 111 -30 11 -6 52 -16 90 -22 82 -13 117
-26 109 -40 -10 -16 -64 -12 -124 9 -58 21 -108 32 -151 35 -14 1 -30 4 -36 8
-6 4 -62 10 -124 13 -107 5 -142 12 -112 22 6 3 9 9 6 15 -16 25 33 34 101 18z
m-170 -50 c3 -5 1 -10 -4 -10 -6 0 -11 5 -11 10 0 6 2 10 4 10 3 0 8 -4 11
-10z m-3328 -3066 c-3 -3 -12 -4 -19 -1 -8 3 -5 6 6 6 11 1 17 -2 13 -5z m400
-269 c0 -8 -4 -12 -9 -9 -5 3 -6 10 -3 15 9 13 12 11 12 -6z m37 -3 c3 -5 -1
-9 -9 -9 -8 0 -12 4 -9 9 3 4 7 8 9 8 2 0 6 -4 9 -8z m2276 -66 c0 -3 -4 -8
-10 -11 -5 -3 -10 -1 -10 4 0 6 5 11 10 11 6 0 10 -2 10 -4z m858 -45 c11 -7
11 -9 -1 -14 -16 -6 -27 0 -27 15 0 10 11 10 28 -1z m-2031 -93 c-3 -8 -6 -5
-6 6 -1 11 2 17 5 13 3 -3 4 -12 1 -19z m1290 -14 c-3 -3 -12 -4 -19 -1 -8 3
-5 6 6 6 11 1 17 -2 13 -5z m-2323 -63 c3 -5 -1 -11 -9 -14 -9 -4 -12 -1 -8 9
6 16 10 17 17 5z m26 -27 c0 -8 -19 -13 -24 -6 -3 5 1 9 9 9 8 0 15 -2 15 -3z
m38 -19 c-3 -3 -9 2 -12 12 -6 14 -5 15 5 6 7 -7 10 -15 7 -18z m1177 -65 c3
-6 -1 -7 -9 -4 -18 7 -21 14 -7 14 6 0 13 -4 16 -10z m5 -285 c0 -7 -30 -13
-34 -7 -3 4 4 9 15 9 10 1 19 0 19 -2z m-16 -653 c3 -5 -1 -9 -9 -9 -8 0 -12
4 -9 9 3 4 7 8 9 8 2 0 6 -4 9 -8z m26 -37 c0 -2 -9 -3 -19 -2 -11 0 -18 5
-15 9 4 6 34 0 34 -7z m-14 -327 c4 -7 3 -8 -4 -4 -7 4 -12 2 -12 -5 0 -7 -3
-10 -6 -6 -6 5 3 27 11 27 2 0 7 -5 11 -12z m-19 -73 c0 -8 -4 -12 -9 -9 -5 3
-6 10 -3 15 9 13 12 11 12 -6z m44 -213 c-7 -2 -18 1 -23 6 -8 8 -4 9 13 5 13
-4 18 -8 10 -11z m-21 -223 c0 -5 -4 -9 -8 -9 -5 0 -9 7 -9 15 0 8 4 12 9 9 4
-3 8 -9 8 -15z m-10 -23 c0 -2 -8 -10 -17 -17 -16 -13 -17 -12 -4 4 13 16 21
21 21 13z m5 -70 c0 -13 -2 -27 -5 -30 -5 -4 -6 43 -1 52 4 8 7 -1 6 -22z"/>
<path d="M5902 5700 c0 -19 2 -27 5 -17 2 9 2 25 0 35 -3 9 -5 1 -5 -18z"/>
<path d="M2525 5614 c-8 -9 -33 -42 -54 -73 -22 -31 -62 -78 -90 -104 -51 -49
-63 -81 -39 -105 23 -23 59 -12 111 33 l52 45 3 -419 c1 -248 -2 -429 -7 -444
-10 -25 -10 -25 -161 -29 -145 -3 -153 -4 -171 -27 -23 -28 -23 -32 -6 -55 12
-17 37 -18 345 -18 182 0 336 3 342 7 5 3 10 19 10 35 0 42 -29 54 -148 60
l-103 5 1 488 c0 300 4 496 10 507 18 33 11 68 -16 89 -32 25 -57 27 -79 5z"/>
<path d="M3670 5613 c-67 -12 -221 -58 -266 -80 -67 -33 -147 -103 -179 -157
-43 -73 -29 -142 27 -134 17 2 31 19 52 61 29 59 71 99 142 136 118 62 395
102 462 67 65 -34 100 -74 113 -130 19 -87 9 -163 -31 -221 -56 -82 -160 -195
-240 -258 -41 -33 -128 -109 -192 -169 -154 -144 -187 -210 -133 -263 l24 -25
270 0 c241 0 276 -2 333 -20 105 -33 158 -24 158 26 0 30 -17 41 -97 66 -60
20 -99 23 -332 28 l-263 5 98 96 c55 54 140 130 189 170 102 83 89 70 176 169
127 145 149 190 149 309 0 128 -18 178 -86 241 -89 81 -115 90 -241 89 -59 -1
-119 -4 -133 -6z"/>
<path d="M4781 5523 c-25 -17 -26 -35 -5 -68 16 -24 15 -27 -9 -63 -107 -162
-147 -340 -147 -658 0 -159 0 -161 28 -201 36 -54 93 -102 134 -114 18 -5 77
-9 132 -9 80 0 105 4 130 19 98 61 135 194 143 514 5 186 4 201 -17 265 -24
71 -89 202 -119 239 -10 11 -40 35 -67 51 -59 36 -169 49 -203 25z m187 -136
c20 -16 87 -154 106 -216 31 -106 9 -485 -33 -584 -31 -72 -46 -80 -151 -76
l-91 4 -41 44 -41 43 6 187 c8 292 42 426 141 559 48 65 64 71 104 39z"/>
<path d="M5871 4654 c0 -11 3 -14 6 -6 3 7 2 16 -1 19 -3 4 -6 -2 -5 -13z"/>
<path d="M5873 4535 c0 -8 4 -12 9 -9 5 3 6 10 3 15 -9 13 -12 11 -12 -6z"/>
<path d="M5876 4492 c-2 -4 -1 -14 3 -21 6 -10 10 -9 14 3 6 16 -8 32 -17 18z"/>
<path d="M5873 4355 c0 -28 4 -41 9 -33 4 7 8 22 8 33 0 11 -4 26 -8 33 -5 8
-9 -5 -9 -33z"/>
<path d="M5740 3420 c0 -5 5 -10 11 -10 5 0 7 5 4 10 -3 6 -8 10 -11 10 -2 0
-4 -4 -4 -10z"/>
<path d="M5705 3389 c-4 -6 -5 -12 -2 -15 2 -3 7 2 10 11 7 17 1 20 -8 4z"/>
<path d="M5645 3280 c-3 -6 1 -7 9 -4 18 7 21 14 7 14 -6 0 -13 -4 -16 -10z"/>
<path d="M1768 3263 c-5 -29 2 -41 39 -66 24 -16 40 -34 36 -39 -4 -7 -1 -8 6
-3 9 5 6 14 -11 34 -13 14 -29 38 -36 54 -11 25 -30 37 -34 20z"/>
<path d="M1955 3100 c-3 -5 -1 -10 4 -10 6 0 11 5 11 10 0 6 -2 10 -4 10 -3 0
-8 -4 -11 -10z"/>
<path d="M2086 3055 c4 -8 7 -15 9 -15 1 0 8 7 15 15 10 13 9 15 -8 15 -15 0
-20 -5 -16 -15z"/>
<path d="M4130 3050 c0 -5 5 -10 11 -10 5 0 7 5 4 10 -3 6 -8 10 -11 10 -2 0
-4 -4 -4 -10z"/>
<path d="M4205 3050 c3 -5 8 -10 11 -10 2 0 4 5 4 10 0 6 -5 10 -11 10 -5 0
-7 -4 -4 -10z"/>
<path d="M4386 3039 c3 -5 12 -9 20 -9 8 0 12 -4 9 -10 -3 -5 1 -10 9 -10 24
0 8 27 -19 33 -14 2 -22 0 -19 -4z"/>
<path d="M4294 3026 c11 -9 24 -16 30 -16 12 0 7 5 -24 19 -24 11 -24 11 -6
-3z"/>
<path d="M4520 3020 c0 -5 5 -10 11 -10 5 0 7 5 4 10 -3 6 -8 10 -11 10 -2 0
-4 -4 -4 -10z"/>
<path d="M3457 2934 c-3 -3 -3 -12 0 -20 3 -8 -1 -14 -8 -14 -9 0 -10 -3 -4
-8 16 -11 19 -32 17 -104 -2 -69 5 -81 29 -52 11 13 15 111 7 187 -1 16 -28
24 -41 11z"/>
<path d="M3961 2771 c-10 -18 -6 -31 11 -31 4 0 7 11 6 25 -3 30 -4 31 -17 6z"/>
<path d="M3479 435 c-10 -9 3 -65 14 -65 6 0 3 -6 -8 -13 -13 -10 -15 -16 -6
-21 18 -11 25 0 24 38 -1 35 -15 71 -24 61z"/>
<path d="M3480 245 c0 -8 2 -15 4 -15 2 0 6 7 10 15 3 8 1 15 -4 15 -6 0 -10
-7 -10 -15z"/>
</g>
</svg>
